<svg xmlns="http://www.w3.org/2000/svg" width="12.984" height="12.984" viewBox="0 0 12.984 12.984"><defs><style>.a{stroke:#fff;stroke-width:0.5px;}</style></defs><g transform="translate(-317.75 -1227.75)"><path d="M7.507,10.724a.429.429,0,0,1,.434-.434H9.923V7.245a.434.434,0,1,1,.868,0v3.489a.429.429,0,0,1-.434.434.429.429,0,0,1-.1-.005H7.936a.408.408,0,0,1-.309-.131A.458.458,0,0,1,7.507,10.724Z" transform="translate(313.993 1224.689)"/><path class="a" d="M4.488,10.081a6.121,6.121,0,0,1,.843-3.138A6.237,6.237,0,0,1,7.609,4.665a6.23,6.23,0,0,1,5.549-.344,6.3,6.3,0,0,1,1.99,1.33,6.112,6.112,0,0,1,1.33,2,6.2,6.2,0,0,1-3.321,8.171,6.222,6.222,0,0,1-4.856,0A6.143,6.143,0,0,1,4.976,12.5,6.008,6.008,0,0,1,4.488,10.081Zm1.375,0A4.711,4.711,0,0,0,7.3,13.507a4.841,4.841,0,0,0,5.871.782,4.918,4.918,0,0,0,1.78-1.774,4.829,4.829,0,0,0,0-4.873,4.891,4.891,0,0,0-1.78-1.78,4.854,4.854,0,0,0-4.867,0,4.992,4.992,0,0,0-1.785,1.78A4.694,4.694,0,0,0,5.863,10.081Z" transform="translate(313.512 1224.172)"/></g></svg>