<svg xmlns="http://www.w3.org/2000/svg" width="1279" height="448.006" viewBox="0 0 1279 448.006"><defs><style>.a,.i{fill:none;}.a,.e{stroke:#fb0;}.a{stroke-width:2px;stroke-dasharray:5;}.b,.e,.g{fill:#fb0;}.b,.g{stroke:#fff;}.b{stroke-width:0.5px;}.c{fill:#555;font-size:16px;}.c,.f{font-family:GTWalsheimPro-Regular, GT Walsheim Pro;}.d,.f{font-size:24px;}.d{font-family:GTWalsheimPro-Bold, GT Walsheim Pro;font-weight:700;}.e{stroke-width:1.5px;}.f{fill:#fff;}.h{stroke:none;}</style></defs><g transform="translate(-321 -1765.994)"><path class="a" d="M903.379,778.344H1246s109,7.648,109,127.38-109,121.909-109,121.909H949" transform="translate(244 1030)"/><g transform="translate(992 1650.244)"><g transform="translate(0 116)"><path class="b" d="M76.5,135.269V121.377A5.383,5.383,0,0,0,71.119,116H1.366A1.366,1.366,0,0,0,0,117.366v35.516a1.366,1.366,0,0,0,1.366,1.366H20.684a5.438,5.438,0,0,0,10.54,0H65.762a5.438,5.438,0,0,0,10.54,0h4.292a1.366,1.366,0,0,0,1.366-1.366v-10.9A6.87,6.87,0,0,0,76.5,135.269ZM2.732,126.928H8.2v8.2H2.732Zm23.222,28.686a2.732,2.732,0,1,1,2.732-2.732A2.732,2.732,0,0,1,25.954,155.614Zm20.49-4.1H31.224a5.438,5.438,0,0,0-10.54,0H2.732v-6.83H8.2v-2.732H2.732v-4.1H46.444ZM10.928,135.124v-8.2h5.464v8.2Zm8.2,0v-8.2h5.464v8.2Zm8.2,0v-8.2h5.464v8.2Zm8.2,0v-8.2H40.98v8.2Zm21.856,16.392h-8.2V126.928h8.2Zm1.366-27.32H47.81a1.366,1.366,0,0,0-1.366,1.366v9.562H43.712v-9.562a1.366,1.366,0,0,0-1.366-1.366H2.732v-5.464H71.119a2.649,2.649,0,0,1,2.645,2.645v.087H64.2a1.366,1.366,0,0,0-1.366,1.366v12.294H60.1v-9.562A1.366,1.366,0,0,0,58.738,124.2Zm15.026,0v10.928h-8.2V124.2Zm-2.732,31.418a2.732,2.732,0,1,1,2.732-2.732A2.732,2.732,0,0,1,71.032,155.614Zm8.2-12.294H73.764v2.732h5.464v5.464H76.3a5.438,5.438,0,0,0-10.54,0H60.1v-13.66h15a4.132,4.132,0,0,1,4.128,4.128Z" transform="translate(0 -116)"/></g></g><g transform="translate(0 -3213)"><text class="c" transform="translate(321 5115)"><tspan x="0" y="14">Submit the details of pick up, drop and </tspan><tspan x="0" y="38">dimensions of the cargo</tspan></text><text class="c" transform="translate(757 5115)"><tspan x="0" y="14">Find out exactly how much it will cost </tspan><tspan x="0" y="38">and payment mode</tspan></text><text class="c" transform="translate(1193 5115)"><tspan x="0" y="14">Receive vendor details and updates </tspan><tspan x="0" y="38">through email &amp; SMS notifications</tspan></text><text class="d" transform="translate(321 5092)"><tspan x="0" y="0">Heading name 1</tspan></text><text class="d" transform="translate(757 5092)"><tspan x="0" y="0">Heading Name 2</tspan></text><text class="d" transform="translate(1193 5092)"><tspan x="0" y="0">Heading Name 3</tspan></text><g class="e" transform="translate(321 4989)"><circle class="h" cx="32" cy="32" r="32"/><circle class="i" cx="32" cy="32" r="31.25"/></g><g class="e" transform="translate(757 4989)"><circle class="h" cx="32" cy="32" r="32"/><circle class="i" cx="32" cy="32" r="31.25"/></g><g class="e" transform="translate(1193 4989)"><circle class="h" cx="32" cy="32" r="32"/><circle class="i" cx="32" cy="32" r="31.25"/></g><line class="a" x2="373" transform="translate(384.5 5021.5)"/><line class="a" x2="375" transform="translate(819.5 5021.5)"/><text class="f" transform="translate(353 5030)"><tspan x="-4.56" y="0">1</tspan></text><text class="f" transform="translate(789 5030)"><tspan x="-6.828" y="0">2</tspan></text><text class="f" transform="translate(1225 5030)"><tspan x="-6.756" y="0">3</tspan></text></g><g transform="translate(0 -2964)"><text class="c" transform="translate(321 5115)"><tspan x="0" y="14">Submit the details of pick up, drop and </tspan><tspan x="0" y="38">dimensions of the cargo</tspan></text><text class="c" transform="translate(757 5115)"><tspan x="0" y="14">Find out exactly how much it will cost </tspan><tspan x="0" y="38">and payment mode</tspan></text><text class="c" transform="translate(1193 5115)"><tspan x="0" y="14">Receive vendor details and updates </tspan><tspan x="0" y="38">through email &amp; SMS notifications</tspan></text><text class="d" transform="translate(321 5092)"><tspan x="0" y="0">Heading Name 6</tspan></text><text class="d" transform="translate(757 5092)"><tspan x="0" y="0">Heading Name 5</tspan></text><text class="d" transform="translate(1193 5092)"><tspan x="0" y="0">Heading Name 4</tspan></text><g class="e" transform="translate(321 4989)"><circle class="h" cx="32" cy="32" r="32"/><circle class="i" cx="32" cy="32" r="31.25"/></g><g class="e" transform="translate(757 4989)"><circle class="h" cx="32" cy="32" r="32"/><circle class="i" cx="32" cy="32" r="31.25"/></g><g class="e" transform="translate(1193 4989)"><circle class="h" cx="32" cy="32" r="32"/><circle class="i" cx="32" cy="32" r="31.25"/></g><line class="a" x2="373" transform="translate(384.5 5021.5)"/><line class="a" x2="375" transform="translate(819.5 5021.5)"/><text class="f" transform="translate(353 5030)"><tspan x="-6.816" y="0">6</tspan></text><text class="f" transform="translate(789 5030)"><tspan x="-6.924" y="0">5</tspan></text><text class="f" transform="translate(1225 5030)"><tspan x="-6.888" y="0">4</tspan></text></g><path class="g" d="M916.558,373.2a8.647,8.647,0,0,0,16.954,0H959.8a8.647,8.647,0,0,0,16.953,0h1.65a.969.969,0,0,0,.4-.057,2.773,2.773,0,0,0,.682.057,3.907,3.907,0,0,0,3.3-1.764l8.875-13.2a4.072,4.072,0,0,0-1.195-5.632L961.047,332.86a3.842,3.842,0,0,0-3.016-.626,3.911,3.911,0,0,0-2.617,1.707l-11.776,17.579a3.97,3.97,0,0,0-.512,3.3,4.192,4.192,0,0,0,2.219,2.674l.91.455V369.9H939.94v-28.73l-1.706-1.707H920.086a7.424,7.424,0,0,0-7.225,5.746l-.512,2.162a78.577,78.577,0,0,0-2.048,17.864V371.6l1.707,1.707h4.551Zm43.18-3.413H949.555V359.429l12.516,5.973A9.126,9.126,0,0,0,959.739,369.783Zm8.477,6.941a5.234,5.234,0,1,1,5.234-5.234A5.22,5.22,0,0,1,968.215,376.723Zm-21.846-23.382,11.776-17.579a.493.493,0,0,1,.4-.228,1.237,1.237,0,0,1,.569.114l29.413,19.741a.624.624,0,0,1,.227.91l-8.875,13.2a.613.613,0,0,1-.8.171l-2.788-1.308a8.6,8.6,0,0,0-8.022-5.519,10.479,10.479,0,0,0-2.674.4l-18.831-8.989a.723.723,0,0,1-.4-.512C946.255,353.683,946.255,353.512,946.369,353.341Zm-21.334,23.382a5.234,5.234,0,1,1,5.234-5.234A5.22,5.22,0,0,1,925.035,376.723Zm-9.444-28.673.512-2.162a4.07,4.07,0,0,1,3.926-3.129h7.452v8.647a3.18,3.18,0,0,1-3.186,3.186h-9.9A63,63,0,0,1,915.591,348.05ZM913.6,365.118c0-2.39.114-4.779.341-7.111h10.3a6.6,6.6,0,0,0,6.6-6.6v-8.591h5.575V369.84h-2.958a8.647,8.647,0,0,0-16.954,0h-2.958v-4.722Z" transform="translate(-325.801 1675.852)"/></g></svg>