<svg xmlns="http://www.w3.org/2000/svg" width="55" height="55" viewBox="0 0 55 55"><defs><style>.a{fill:#fb0;}.b{fill:#fff;}</style></defs><circle class="a" cx="27.5" cy="27.5" r="27.5"/><path class="b" d="M80.774,127.861a3.735,3.735,0,0,0,7.278,0H100.1a3.735,3.735,0,0,0,7.278,0h4.356a.812.812,0,0,0,.827-.827V111.127a.812.812,0,0,0-.827-.827H89.927a.812.812,0,0,0-.827.827v2.288H82.318a3.189,3.189,0,0,0-3.143,2.509l-.221.91a32.825,32.825,0,0,0-.855,7.526v3.5h2.674Zm22.964,1.241a2.068,2.068,0,1,1,2.068-2.068A2.065,2.065,0,0,1,103.738,129.1ZM90.754,114.242v-2.288h20.18v14.253H107.4a3.735,3.735,0,0,0-7.278,0H90.754ZM84.413,129.1a2.068,2.068,0,1,1,2.068-2.068A2.065,2.065,0,0,1,84.413,129.1Zm-3.859-11.909.221-.91a1.567,1.567,0,0,1,1.544-1.213h3v3.5a1.235,1.235,0,0,1-1.241,1.241H80.057C80.2,118.929,80.361,118.074,80.554,117.192Zm-.827,7.14c0-.965.055-1.93.138-2.895h4.218a2.894,2.894,0,0,0,2.895-2.895v-3.5H89.1v11.165H88.052a3.735,3.735,0,0,0-7.278,0H79.726Z" transform="translate(-68.605 -92.787)"/></svg>