<svg xmlns="http://www.w3.org/2000/svg" width="55" height="55" viewBox="0 0 55 55"><defs><style>.a{fill:#fb0;}.b{fill:#fff;}</style></defs><circle class="a" cx="27.5" cy="27.5" r="27.5"/><g transform="translate(-0.582 14.38)"><path class="b" d="M16.773,26.37H39.95a.773.773,0,0,0,.749-.96l-.667-2.669a5.4,5.4,0,0,0-5.246-4.1H31.452v-.851a6.335,6.335,0,0,0,3.09-5.432V6.127a2.006,2.006,0,0,0,1.545-1.95V3.863c0-1.149-.886-2.176-2.5-2.891A13.243,13.243,0,0,0,28.361,0a13.243,13.243,0,0,0-5.23.972c-1.609.715-2.5,1.742-2.5,2.891V3.88a2.3,2.3,0,0,0,1.545,2.172v6.308a6.337,6.337,0,0,0,3.09,5.432v.851H21.937a5.4,5.4,0,0,0-5.246,4.1l-.667,2.669a.773.773,0,0,0,.749.96Zm5.806-1.545a6.956,6.956,0,0,1,2.23-2.114l1.85,2.114Zm3.707-2.773a6.942,6.942,0,0,1,4.151,0l-2.076,2.372Zm.53-3.408v-.2a6.055,6.055,0,0,0,3.09,0v.2a1.545,1.545,0,0,1-3.09,0Zm3.248,6.18,1.85-2.114a6.955,6.955,0,0,1,2.23,2.114Zm4.721-4.635a3.857,3.857,0,0,1,3.747,2.926l.427,1.709H35.933a8.5,8.5,0,0,0-5.137-4.28,3.1,3.1,0,0,0,.241-.356ZM22.936,4.635a.756.756,0,0,1-.755-.755V3.863c0-.48.6-1.047,1.578-1.479a11.685,11.685,0,0,1,4.6-.839,11.685,11.685,0,0,1,4.6.839c.973.432,1.578,1,1.578,1.479v.315a.459.459,0,0,1-.458.458ZM32.213,6.18a5.452,5.452,0,0,1-7.7,0ZM23.726,7.562a6.994,6.994,0,0,0,9.271,0v4.712a7.748,7.748,0,0,1-1.6-.613,6.88,6.88,0,0,0-3.032-.846,6.88,6.88,0,0,0-3.032.846,7.747,7.747,0,0,1-1.6.613Zm.23,6.242a8.8,8.8,0,0,0,2.03-.744,5.481,5.481,0,0,1,2.376-.7,5.481,5.481,0,0,1,2.376.7,8.8,8.8,0,0,0,2.03.744,4.593,4.593,0,0,1-8.812,0ZM18.19,23.115a3.857,3.857,0,0,1,3.747-2.926h3.75a3.1,3.1,0,0,0,.241.356,8.5,8.5,0,0,0-5.137,4.28H17.763Z" transform="translate(0)"/></g></svg>