<svg xmlns="http://www.w3.org/2000/svg" xmlns:xlink="http://www.w3.org/1999/xlink" width="154.668" height="45.827" viewBox="0 0 154.668 45.827"><defs><style>.a{fill:#a6a6a6;}.b,.c,.j{fill:#fff;}.c,.d,.e,.f,.g,.h,.i,.j{fill-rule:evenodd;}.d{fill:url(#a);}.e{fill:url(#b);}.f{fill:url(#c);}.g{fill:url(#d);}.h{opacity:0.2;}.i{opacity:0.12;}.j{opacity:0.25;}</style><linearGradient id="a" x1="2.472" y1="1.035" x2="2.361" y2="1.005" gradientUnits="objectBoundingBox"><stop offset="0" stop-color="#00a0ff"/><stop offset="0.007" stop-color="#00a1ff"/><stop offset="0.26" stop-color="#00beff"/><stop offset="0.512" stop-color="#00d2ff"/><stop offset="0.76" stop-color="#00dfff"/><stop offset="1" stop-color="#00e3ff"/></linearGradient><linearGradient id="b" x1="1.95" y1="1.879" x2="1.69" y2="1.879" gradientUnits="objectBoundingBox"><stop offset="0" stop-color="#ffe000"/><stop offset="0.409" stop-color="#ffbd00"/><stop offset="0.775" stop-color="orange"/><stop offset="1" stop-color="#ff9c00"/></linearGradient><linearGradient id="c" x1="1.926" y1="0.946" x2="1.835" y2="0.793" gradientUnits="objectBoundingBox"><stop offset="0" stop-color="#ff3a44"/><stop offset="1" stop-color="#c31162"/></linearGradient><linearGradient id="d" x1="1.856" y1="2.093" x2="1.897" y2="2.025" gradientUnits="objectBoundingBox"><stop offset="0" stop-color="#32a071"/><stop offset="0.068" stop-color="#2da771"/><stop offset="0.476" stop-color="#15cf74"/><stop offset="0.801" stop-color="#06e775"/><stop offset="1" stop-color="#00f076"/></linearGradient></defs><path class="a" d="M149.165,45.827H5.418A5.43,5.43,0,0,1,0,40.4V5.415A5.423,5.423,0,0,1,5.418,0H149.165a5.5,5.5,0,0,1,5.5,5.415V40.4a5.5,5.5,0,0,1-5.5,5.423Z" transform="translate(0)"/><path d="M153.429,40.276a4.388,4.388,0,0,1-4.393,4.388H5.288a4.393,4.393,0,0,1-4.4-4.388V5.284A4.4,4.4,0,0,1,5.288.89H149.036a4.393,4.393,0,0,1,4.393,4.394V40.276Z" transform="translate(0.13 0.13)"/><path class="b" d="M1688.709,278.678a3.473,3.473,0,0,1-2.592-1.073,3.653,3.653,0,0,1-1.047-2.618,3.572,3.572,0,0,1,1.047-2.615,3.462,3.462,0,0,1,2.589-1.073,3.508,3.508,0,0,1,2.592,1.073,3.788,3.788,0,0,1,0,5.23A3.444,3.444,0,0,1,1688.709,278.678Zm-30.733,0a3.6,3.6,0,0,1-2.6-1.058,3.688,3.688,0,0,1,2.6-6.317,3.629,3.629,0,0,1,1.454.3,2.94,2.94,0,0,1,1.107.791l.068.083-.771.757-.08-.094a2.191,2.191,0,0,0-1.79-.771,2.474,2.474,0,0,0-1.784.728,2.766,2.766,0,0,0,0,3.79,2.608,2.608,0,0,0,3.616,0,1.971,1.971,0,0,0,.524-1.187h-2.473v-1.064h3.534l.014.1a3.9,3.9,0,0,1,.051.535,3.2,3.2,0,0,1-.882,2.362A3.442,3.442,0,0,1,1657.976,278.678Zm40.862-.151h-1.09l-3.338-5.341.028.962v4.376h-1.09v-7.071h1.244l.034.054,3.138,5.031-.028-.959v-4.126h1.1Zm-18.318,0h-1.1v-6.009H1677.5v-1.064h4.931v1.064h-1.915v6.009Zm-3.918,0h-1.1v-7.074h1.1Zm-6.189,0h-1.1v-6.009H1667.4v-1.064h4.931v1.064h-1.915Zm-3.713-.011h-4.222v-7.062h4.222v1.064h-3.118v1.941h2.814v1.053h-2.814v1.941h3.118Zm20.225-1.642a2.436,2.436,0,0,0,1.784.74,2.375,2.375,0,0,0,1.784-.74,2.8,2.8,0,0,0,0-3.767,2.441,2.441,0,0,0-1.784-.74,2.365,2.365,0,0,0-1.781.74,2.808,2.808,0,0,0-.006,3.767Z" transform="translate(-1607.229 -263.581)"/><path class="c" d="M1677.583,688.389a4.854,4.854,0,1,0,4.868,4.854A4.778,4.778,0,0,0,1677.583,688.389Zm0,7.785a2.95,2.95,0,1,1,2.737-2.942A2.809,2.809,0,0,1,1677.583,696.174Zm-10.622-7.785a4.854,4.854,0,1,0,4.868,4.854A4.778,4.778,0,0,0,1666.962,688.389Zm0,7.785a2.95,2.95,0,1,1,2.737-2.942A2.809,2.809,0,0,1,1666.962,696.174Zm-12.639-6.3v2.054h4.931a4.331,4.331,0,0,1-1.115,2.586,5.031,5.031,0,0,1-3.8,1.508,5.478,5.478,0,0,1,0-10.955,5.264,5.264,0,0,1,3.713,1.471l1.457-1.457a7.164,7.164,0,0,0-5.159-2.08,7.532,7.532,0,1,0,0,15.063,6.9,6.9,0,0,0,5.261-2.117,6.817,6.817,0,0,0,1.787-4.817,6.365,6.365,0,0,0-.114-1.28h-6.96S1654.323,689.872,1654.323,689.872Zm51.7,1.6a4.51,4.51,0,0,0-4.157-3.093,4.612,4.612,0,0,0-4.575,4.854,4.744,4.744,0,0,0,4.817,4.854,4.818,4.818,0,0,0,4.043-2.154l-1.647-1.1a2.76,2.76,0,0,1-2.384,1.343,2.479,2.479,0,0,1-2.359-1.471l6.49-2.689S1706.02,691.471,1706.02,691.471Zm-6.618,1.622a2.664,2.664,0,0,1,2.535-2.828,1.871,1.871,0,0,1,1.8,1.027Zm-5.272,4.7h2.131V683.535h-2.131Zm-3.5-8.328h-.077a3.362,3.362,0,0,0-2.561-1.09,4.854,4.854,0,0,0,0,9.7,3.353,3.353,0,0,0,2.561-1.1h.077v.7c0,1.852-.99,2.851-2.587,2.851a2.691,2.691,0,0,1-2.447-1.724l-1.852.774a4.633,4.633,0,0,0,4.3,2.865c2.5,0,4.615-1.471,4.615-5.059v-8.71h-2.015v.8Zm-2.447,6.706a2.951,2.951,0,0,1,0-5.881,2.729,2.729,0,0,1,2.586,2.953A2.7,2.7,0,0,1,1688.182,696.174ZM1716,683.535h-5.1V697.8h2.131v-5.4H1716a4.437,4.437,0,1,0,0-8.86Zm.063,6.869h-3.03V685.51h3.03a2.448,2.448,0,1,1,0,4.894Zm13.16-2.04a4.013,4.013,0,0,0-3.8,2.18l1.889.785a2.026,2.026,0,0,1,1.94-1.053,2.058,2.058,0,0,1,2.245,1.838v.151a4.774,4.774,0,0,0-2.219-.546c-2.04,0-4.109,1.115-4.109,3.207a3.3,3.3,0,0,0,3.537,3.144,3,3,0,0,0,2.712-1.394h.077v1.1h2.054v-5.463C1733.543,689.772,1731.654,688.363,1729.221,688.363Zm-.268,7.81c-.7,0-1.673-.341-1.673-1.218,0-1.1,1.218-1.522,2.256-1.522a3.7,3.7,0,0,1,1.941.481A2.565,2.565,0,0,1,1728.953,696.174Zm12.084-7.506-2.447,6.186h-.077l-2.535-6.186h-2.293l3.8,8.647-2.168,4.806h2.219l5.853-13.453Zm-19.183,9.128h2.131V683.535h-2.131Z" transform="translate(-1599.845 -663.566)"/><path class="d" d="M400.621,299.477a2.311,2.311,0,0,0-.521,1.61v25.23a2.2,2.2,0,0,0,.532,1.6l.088.077,14.136-14.136v-.316L400.709,299.4Z" transform="translate(-388.716 -290.881)"/><path class="e" d="M923.015,640.26l-4.715-4.715v-.33l4.715-4.715.1.063,5.577,3.17c1.6.9,1.6,2.384,0,3.295l-5.577,3.17Z" transform="translate(-892.171 -612.56)"/><path class="f" d="M437.441,806.817,432.624,802,418.4,816.224a1.867,1.867,0,0,0,2.37.077l16.671-9.484" transform="translate(-406.495 -779.18)"/><path class="g" d="M437.441,296.332l-16.671-9.469a1.849,1.849,0,0,0-2.37.077l14.224,14.21Z" transform="translate(-406.495 -278.329)"/><path class="h" d="M437.727,967.7l-16.557,9.407a1.879,1.879,0,0,1-2.282.011l-.088.088.088.077a1.883,1.883,0,0,0,2.282-.011l16.671-9.469Z" transform="translate(-406.884 -940.165)"/><path class="i" d="M1089.194,803.482l-5.694,3.232.1.1,5.577-3.17a2,2,0,0,0,1.192-1.647A2.053,2.053,0,0,1,1089.194,803.482Z" transform="translate(-1052.671 -779.18)"/><path class="j" d="M402.991,286.858,425.239,299.5a2.1,2.1,0,0,1,1.192,1.482,2,2,0,0,0-1.192-1.647l-22.248-12.639c-1.6-.913-2.891-.151-2.891,1.673v.165C400.1,286.7,401.395,285.956,402.991,286.858Z" transform="translate(-388.716 -278.159)"/></svg>