<svg xmlns="http://www.w3.org/2000/svg" width="154.668" height="45.827" viewBox="0 0 154.668 45.827"><defs><style>.a{fill:#a6a6a6;}.b{fill:#fff;}</style></defs><path class="a" d="M149.165,45.827H5.418A5.43,5.43,0,0,1,0,40.4V5.415A5.423,5.423,0,0,1,5.418,0H149.165a5.5,5.5,0,0,1,5.5,5.415V40.4a5.5,5.5,0,0,1-5.5,5.423Z" transform="translate(0)"/><path d="M153.429,40.276a4.388,4.388,0,0,1-4.393,4.388H5.288a4.393,4.393,0,0,1-4.4-4.388V5.284A4.4,4.4,0,0,1,5.288.89H149.036a4.393,4.393,0,0,1,4.393,4.394V40.276Z" transform="translate(0.13 0.13)"/><g transform="translate(14.656 7.123)"><path class="b" d="M32.654,20.864a6.641,6.641,0,0,1,3.163-5.573,6.8,6.8,0,0,0-5.357-2.9c-2.254-.237-4.44,1.348-5.588,1.348-1.171,0-2.939-1.326-4.844-1.287a7.132,7.132,0,0,0-6,3.662c-2.6,4.495-.66,11.1,1.827,14.732,1.244,1.779,2.7,3.766,4.6,3.7,1.862-.077,2.557-1.187,4.8-1.187,2.226,0,2.879,1.187,4.82,1.142,2-.032,3.256-1.787,4.457-3.583a14.7,14.7,0,0,0,2.038-4.151A6.42,6.42,0,0,1,32.654,20.864Z" transform="translate(-12.792 -5.32)"/><path class="b" d="M27.485,10.9a6.537,6.537,0,0,0,1.5-4.685,6.659,6.659,0,0,0-4.305,2.227,6.221,6.221,0,0,0-1.535,4.512A5.5,5.5,0,0,0,27.485,10.9Z" transform="translate(-11.289 -6.217)"/></g><g transform="translate(48.589 20.623)"><path class="b" d="M55.282,33.443h-2.6l-1.425-4.478H46.3l-1.358,4.478H42.41L47.318,18.2H50.35Zm-4.457-6.357L49.536,23.1q-.2-.61-.769-2.872h-.046Q48.5,21.2,48,23.1l-1.266,3.981Z" transform="translate(-42.41 -17.973)"/><path class="b" d="M66.008,27.3a6.247,6.247,0,0,1-1.516,4.433,4.432,4.432,0,0,1-3.371,1.448A3.37,3.37,0,0,1,58,31.619h-.046V37.41H55.512V25.556q0-1.763-.091-3.619h2.148l.136,1.743h.046a4.346,4.346,0,0,1,6.955-.431A6.057,6.057,0,0,1,66.008,27.3Zm-2.488.089a4.526,4.526,0,0,0-.724-2.647,2.5,2.5,0,0,0-2.126-1.086,2.54,2.54,0,0,0-1.639.6,2.779,2.779,0,0,0-.961,1.573,3.2,3.2,0,0,0-.113.745v1.833a2.937,2.937,0,0,0,.736,2.026,2.438,2.438,0,0,0,1.911.826,2.5,2.5,0,0,0,2.148-1.063A4.679,4.679,0,0,0,63.52,27.388Z" transform="translate(-40.514 -17.461)"/><path class="b" d="M77.045,27.3a6.243,6.243,0,0,1-1.517,4.433,4.428,4.428,0,0,1-3.369,1.448,3.367,3.367,0,0,1-3.121-1.56h-.046V37.41H66.55V25.556q0-1.763-.091-3.619h2.148l.136,1.743h.046a4.347,4.347,0,0,1,6.957-.431A6.074,6.074,0,0,1,77.045,27.3Zm-2.488.089a4.526,4.526,0,0,0-.725-2.647,2.5,2.5,0,0,0-2.125-1.086,2.543,2.543,0,0,0-1.641.6,2.778,2.778,0,0,0-.96,1.573,3.261,3.261,0,0,0-.113.745v1.833a2.946,2.946,0,0,0,.733,2.026,2.443,2.443,0,0,0,1.913.826,2.5,2.5,0,0,0,2.148-1.063A4.679,4.679,0,0,0,74.557,27.388Z" transform="translate(-38.906 -17.461)"/><path class="b" d="M89.242,29.2a4.063,4.063,0,0,1-1.354,3.167A6,6,0,0,1,83.734,33.7a7.27,7.27,0,0,1-3.951-.95l.566-2.036a6.7,6.7,0,0,0,3.531.974,3.338,3.338,0,0,0,2.15-.623A2.035,2.035,0,0,0,86.8,29.4a2.124,2.124,0,0,0-.634-1.563,5.89,5.89,0,0,0-2.1-1.179q-4-1.493-4-4.372a3.869,3.869,0,0,1,1.4-3.081A5.533,5.533,0,0,1,85.194,18a7.4,7.4,0,0,1,3.46.724l-.611,1.991a6,6,0,0,0-2.918-.7,2.954,2.954,0,0,0-2.012.634,1.81,1.81,0,0,0-.611,1.381,1.864,1.864,0,0,0,.7,1.493A7.912,7.912,0,0,0,85.421,24.7a7.525,7.525,0,0,1,2.9,1.854A3.873,3.873,0,0,1,89.242,29.2Z" transform="translate(-36.965 -18.001)"/><path class="b" d="M95.939,24.089H93.247v5.338q0,2.036,1.425,2.036a4.344,4.344,0,0,0,1.085-.113l.068,1.855a5.534,5.534,0,0,1-1.9.27,2.931,2.931,0,0,1-2.263-.882,4.334,4.334,0,0,1-.815-2.964V24.087h-1.6V22.254h1.6V20.241l2.4-.724v2.737h2.692v1.835Z" transform="translate(-35.587 -17.78)"/><path class="b" d="M107.06,27.343a6.031,6.031,0,0,1-1.448,4.162,5.17,5.17,0,0,1-4.028,1.674,4.916,4.916,0,0,1-3.855-1.605,5.846,5.846,0,0,1-1.437-4.049,5.972,5.972,0,0,1,1.481-4.184,5.127,5.127,0,0,1,3.992-1.629,5.021,5.021,0,0,1,3.891,1.606A5.779,5.779,0,0,1,107.06,27.343Zm-2.534.079a4.945,4.945,0,0,0-.655-2.609,2.413,2.413,0,0,0-2.193-1.315,2.449,2.449,0,0,0-2.24,1.315,5.04,5.04,0,0,0-.655,2.655,4.938,4.938,0,0,0,.655,2.608,2.5,2.5,0,0,0,4.411-.023A4.963,4.963,0,0,0,104.526,27.422Z" transform="translate(-34.56 -17.46)"/><path class="b" d="M113.369,24.085a4.242,4.242,0,0,0-.77-.068,2.308,2.308,0,0,0-1.991.974A3.66,3.66,0,0,0,110,27.162v5.769h-2.441l.023-7.532q0-1.9-.092-3.461h2.128l.089,2.1h.068a3.76,3.76,0,0,1,1.221-1.741,2.953,2.953,0,0,1,1.766-.589,3.922,3.922,0,0,1,.611.045Z" transform="translate(-32.929 -17.461)"/><path class="b" d="M123.4,26.916a5.729,5.729,0,0,1-.089,1.108h-7.328a3.19,3.19,0,0,0,1.063,2.49,3.63,3.63,0,0,0,2.4.769,8.1,8.1,0,0,0,2.965-.52l.383,1.7a9.167,9.167,0,0,1-3.686.679,5.339,5.339,0,0,1-4.017-1.5,5.556,5.556,0,0,1-1.458-4.037,6.3,6.3,0,0,1,1.359-4.139,4.681,4.681,0,0,1,3.844-1.763,4.1,4.1,0,0,1,3.6,1.763A5.946,5.946,0,0,1,123.4,26.916Zm-2.329-.634a3.318,3.318,0,0,0-.474-1.878,2.134,2.134,0,0,0-1.947-1.019,2.317,2.317,0,0,0-1.944,1,3.645,3.645,0,0,0-.723,1.9h5.088Z" transform="translate(-32.034 -17.463)"/></g><g transform="translate(50.039 7.511)"><path class="b" d="M49.833,10.47a3.761,3.761,0,0,1-1.212,3.045,4.821,4.821,0,0,1-3.188.944,14.783,14.783,0,0,1-1.756-.089V7a12.961,12.961,0,0,1,2.068-.156,4.458,4.458,0,0,1,2.967.856A3.459,3.459,0,0,1,49.833,10.47Zm-1.266.033a2.738,2.738,0,0,0-.694-2.012,2.737,2.737,0,0,0-2.029-.7,5.082,5.082,0,0,0-.967.078v5.6a6.339,6.339,0,0,0,.811.033,2.84,2.84,0,0,0,2.128-.766A3.069,3.069,0,0,0,48.567,10.5Z" transform="translate(-43.676 -6.514)"/><path class="b" d="M55.582,11.389a2.962,2.962,0,0,1-.711,2.045,2.539,2.539,0,0,1-1.979.823A2.414,2.414,0,0,1,51,13.467a2.875,2.875,0,0,1-.7-1.989,2.934,2.934,0,0,1,.728-2.055,2.523,2.523,0,0,1,1.961-.8,2.47,2.47,0,0,1,1.912.788A2.852,2.852,0,0,1,55.582,11.389Zm-1.245.039a2.443,2.443,0,0,0-.322-1.282A1.186,1.186,0,0,0,52.937,9.5a1.2,1.2,0,0,0-1.1.646,2.475,2.475,0,0,0-.322,1.3,2.443,2.443,0,0,0,.322,1.282,1.212,1.212,0,0,0,1.09.646A1.2,1.2,0,0,0,54,12.72,2.427,2.427,0,0,0,54.336,11.428Z" transform="translate(-42.712 -6.255)"/><path class="b" d="M63.76,8.719l-1.69,5.4h-1.1l-.7-2.345a17.551,17.551,0,0,1-.434-1.745h-.022a12.773,12.773,0,0,1-.434,1.745l-.744,2.345H57.524l-1.589-5.4h1.234l.611,2.567q.222.911.367,1.733h.022q.134-.677.446-1.722L59.38,8.72h.978l.734,2.523q.266.923.433,1.778h.033a16.988,16.988,0,0,1,.367-1.778l.655-2.523H63.76Z" transform="translate(-41.89 -6.241)"/><path class="b" d="M68.8,14.134H67.6V11.041q0-1.43-1.088-1.43a1.084,1.084,0,0,0-.867.393,1.394,1.394,0,0,0-.333.926v3.2h-1.2V10.277q0-.711-.044-1.546h1.055l.056.844h.033a1.735,1.735,0,0,1,.622-.652,2.029,2.029,0,0,1,1.088-.3,1.724,1.724,0,0,1,1.257.489A2.377,2.377,0,0,1,68.8,10.9Z" transform="translate(-40.705 -6.255)"/><path class="b" d="M71.241,14.435h-1.2V6.556h1.2Z" transform="translate(-39.835 -6.556)"/><path class="b" d="M77.931,11.389a2.962,2.962,0,0,1-.711,2.045,2.541,2.541,0,0,1-1.979.823,2.41,2.41,0,0,1-1.895-.789,2.875,2.875,0,0,1-.7-1.989,2.934,2.934,0,0,1,.728-2.055,2.522,2.522,0,0,1,1.96-.8,2.472,2.472,0,0,1,1.913.788A2.852,2.852,0,0,1,77.931,11.389Zm-1.247.039a2.443,2.443,0,0,0-.322-1.282A1.184,1.184,0,0,0,75.286,9.5a1.2,1.2,0,0,0-1.1.646,2.475,2.475,0,0,0-.322,1.3,2.443,2.443,0,0,0,.322,1.282,1.212,1.212,0,0,0,1.09.646,1.2,1.2,0,0,0,1.076-.658A2.417,2.417,0,0,0,76.684,11.428Z" transform="translate(-39.456 -6.255)"/><path class="b" d="M82.894,14.134H81.816l-.089-.622h-.033a1.849,1.849,0,0,1-1.578.745,1.628,1.628,0,0,1-1.233-.489,1.534,1.534,0,0,1-.423-1.1,1.678,1.678,0,0,1,.828-1.511,4.3,4.3,0,0,1,2.329-.511v-.1q0-1.067-1.122-1.067a2.512,2.512,0,0,0-1.408.4l-.244-.788A3.463,3.463,0,0,1,80.7,8.623q2.117,0,2.12,2.234v1.989A8.435,8.435,0,0,0,82.894,14.134Zm-1.247-1.856v-.833q-1.987-.034-1.987,1.088a.813.813,0,0,0,.23.634.84.84,0,0,0,.587.211,1.213,1.213,0,0,0,.734-.25,1.025,1.025,0,0,0,.435-.85Z" transform="translate(-38.608 -6.255)"/><path class="b" d="M88.941,14.435H87.875l-.056-.867h-.033a1.8,1.8,0,0,1-1.735.99,2.033,2.033,0,0,1-1.622-.766,2.986,2.986,0,0,1-.644-1.989,3.131,3.131,0,0,1,.7-2.123,2.152,2.152,0,0,1,1.667-.756,1.619,1.619,0,0,1,1.521.733H87.7v-3.1h1.2V12.98Q88.9,13.769,88.941,14.435ZM87.7,12.157v-.9a1.767,1.767,0,0,0-.033-.378,1.367,1.367,0,0,0-.434-.728,1.18,1.18,0,0,0-.8-.294,1.232,1.232,0,0,0-1.056.534,2.288,2.288,0,0,0-.385,1.367,2.133,2.133,0,0,0,.369,1.3,1.236,1.236,0,0,0,1.049.533,1.157,1.157,0,0,0,.949-.445A1.48,1.48,0,0,0,87.7,12.157Z" transform="translate(-37.833 -6.556)"/><path class="b" d="M97.921,11.389a2.962,2.962,0,0,1-.711,2.045,2.538,2.538,0,0,1-1.979.823,2.417,2.417,0,0,1-1.895-.789,2.875,2.875,0,0,1-.7-1.989,2.934,2.934,0,0,1,.728-2.055,2.524,2.524,0,0,1,1.963-.8,2.467,2.467,0,0,1,1.911.788A2.852,2.852,0,0,1,97.921,11.389Zm-1.244.039a2.443,2.443,0,0,0-.322-1.282A1.187,1.187,0,0,0,95.276,9.5a1.207,1.207,0,0,0-1.1.646,2.475,2.475,0,0,0-.322,1.3,2.443,2.443,0,0,0,.322,1.282,1.227,1.227,0,0,0,2.168-.011A2.438,2.438,0,0,0,96.676,11.428Z" transform="translate(-36.544 -6.255)"/><path class="b" d="M103.485,14.134h-1.2V11.041q0-1.43-1.09-1.43a1.08,1.08,0,0,0-.866.393,1.389,1.389,0,0,0-.333.926v3.2h-1.2V10.277q0-.711-.042-1.546h1.054l.056.844H99.9a1.752,1.752,0,0,1,.622-.652,2.033,2.033,0,0,1,1.09-.3,1.723,1.723,0,0,1,1.256.489,2.372,2.372,0,0,1,.622,1.79Z" transform="translate(-35.652 -6.255)"/><path class="b" d="M110.354,9.789h-1.322v2.624c0,.667.235,1,.7,1a2.115,2.115,0,0,0,.535-.056l.031.911a2.7,2.7,0,0,1-.933.134,1.435,1.435,0,0,1-1.11-.433,2.118,2.118,0,0,1-.4-1.456V9.789h-.789v-.9h.789V7.9l1.177-.355V8.889h1.322v.9Z" transform="translate(-34.441 -6.412)"/><path class="b" d="M116.08,14.435h-1.2v-3.07q0-1.452-1.087-1.453a1.146,1.146,0,0,0-1.146.842,1.509,1.509,0,0,0-.056.432v3.248h-1.2V6.556h1.2V9.811h.023a1.815,1.815,0,0,1,1.622-.888,1.673,1.673,0,0,1,1.235.489,2.46,2.46,0,0,1,.611,1.811v3.211Z" transform="translate(-33.811 -6.556)"/><path class="b" d="M121.818,11.179a2.9,2.9,0,0,1-.045.544h-3.6a1.575,1.575,0,0,0,.521,1.222,1.789,1.789,0,0,0,1.179.378,3.978,3.978,0,0,0,1.456-.255l.188.834a4.522,4.522,0,0,1-1.812.333,2.618,2.618,0,0,1-1.972-.739,2.722,2.722,0,0,1-.716-1.983,3.091,3.091,0,0,1,.667-2.034,2.3,2.3,0,0,1,1.888-.866,2.009,2.009,0,0,1,1.766.866A2.883,2.883,0,0,1,121.818,11.179Zm-1.146-.31a1.616,1.616,0,0,0-.233-.922,1.049,1.049,0,0,0-.956-.5,1.14,1.14,0,0,0-.956.489,1.818,1.818,0,0,0-.356.934Z" transform="translate(-32.991 -6.256)"/></g></svg>