<svg xmlns="http://www.w3.org/2000/svg" width="79" height="79" viewBox="0 0 79 79"><defs><style>.a,.d{fill:none;}.a{stroke:#fb0;stroke-width:1.5px;}.b{fill:#fb0;}.c{stroke:none;}</style></defs><g transform="translate(-921 -2036)"><g class="a" transform="translate(921 2036)"><circle class="c" cx="39.5" cy="39.5" r="39.5"/><circle class="d" cx="39.5" cy="39.5" r="38.75"/></g><g transform="translate(927.504 2058)"><g transform="translate(20.198)"><path class="b" d="M77.438,10.495H99.749a4.142,4.142,0,0,0,1.438-3C101.188,3.641,95.067,0,88.594,0S76,3.641,76,7.493A4.142,4.142,0,0,0,77.438,10.495Zm7.134-5.83a1.049,1.049,0,0,1,1.455-.291l2.566,1.711L91.16,4.374a1.049,1.049,0,1,1,1.164,1.746l-3.148,2.1a1.049,1.049,0,0,1-1.164,0l-3.148-2.1a1.049,1.049,0,0,1-.291-1.455Z" transform="translate(-76)"/><path class="b" d="M138.754,180c.762,2.419,4.076,4.2,8.2,4.2s7.441-1.778,8.2-4.2Z" transform="translate(-134.363 -167.406)"/></g><g transform="translate(16 27.427)"><path class="b" d="M175.438,432.9h7.583l1.965-5.9a6.259,6.259,0,0,1-11.532-.055Z" transform="translate(-162.438 -424.503)"/><path class="b" d="M23.99,392h-.643A7.355,7.355,0,0,0,16,399.346a1.049,1.049,0,0,0,1.049,1.049h9.739Z" transform="translate(-16 -392)"/><path class="b" d="M345.247,392H344.6l-2.8,8.4h9.739a1.049,1.049,0,0,0,1.049-1.049A7.351,7.351,0,0,0,345.247,392Z" transform="translate(-319.01 -392)"/></g><path class="b" d="M144.4,231.948a12.347,12.347,0,0,1-8.4-2.863v3a8.415,8.415,0,0,0,4.2,7.245v1.151a4.2,4.2,0,1,0,8.4,0v-1.151a8.416,8.416,0,0,0,4.2-7.245v-3A12.347,12.347,0,0,1,144.4,231.948Zm3.958,3.638a4.2,4.2,0,0,1-7.916,0,1.049,1.049,0,1,1,1.978-.7,2.1,2.1,0,0,0,3.96,0,1.049,1.049,0,1,1,1.978.7Z" transform="translate(-111.604 -213.057)"/></g></g></svg>