<svg xmlns="http://www.w3.org/2000/svg" width="79" height="79" viewBox="0 0 79 79"><defs><style>.a,.d{fill:none;}.a{stroke:#fb0;stroke-width:1.5px;}.b{fill:#fb0;}.c{stroke:none;}</style></defs><g transform="translate(-524.203 -2036)"><g class="a" transform="translate(524.203 2036)"><circle class="c" cx="39.5" cy="39.5" r="39.5"/><circle class="d" cx="39.5" cy="39.5" r="38.75"/></g><path class="b" d="M40.346,3.709A19.234,19.234,0,0,0,32.785,2.25c-8,0-16,4.049-24,4.049a19.707,19.707,0,0,1-6.018-.891A2.221,2.221,0,0,0,2.095,5.3,2.067,2.067,0,0,0,0,7.369V27.976a2.066,2.066,0,0,0,1.224,1.913,19.224,19.224,0,0,0,7.561,1.459c8,0,16-4.05,24-4.05a19.707,19.707,0,0,1,6.018.891,2.221,2.221,0,0,0,.672.105,2.067,2.067,0,0,0,2.095-2.066V5.623a2.068,2.068,0,0,0-1.224-1.914ZM3.118,8.759a22.6,22.6,0,0,0,4.074.58,4.162,4.162,0,0,1-4.074,3.348Zm0,18.511v-3.1a4.156,4.156,0,0,1,4.138,3.988A15.691,15.691,0,0,1,3.118,27.271Zm17.667-4.236c-2.87,0-5.2-2.792-5.2-6.235s2.327-6.235,5.2-6.235,5.2,2.792,5.2,6.235S23.654,23.035,20.785,23.035Zm17.667,1.8a22.332,22.332,0,0,0-3.528-.548,4.148,4.148,0,0,1,3.528-3.2Zm0-15.336a4.149,4.149,0,0,1-3.625-4,15.613,15.613,0,0,1,3.625.822Z" transform="translate(543.318 2058.75)"/></g></svg>