<svg xmlns="http://www.w3.org/2000/svg" width="79" height="79" viewBox="0 0 79 79"><defs><style>.a,.d{fill:none;}.a{stroke:#fb0;stroke-width:1.5px;}.b{fill:#fb0;}.c{stroke:none;}</style></defs><g transform="translate(-1302 -2036)"><g class="a" transform="translate(1302 2036)"><circle class="c" cx="39.5" cy="39.5" r="39.5"/><circle class="d" cx="39.5" cy="39.5" r="38.75"/></g><g transform="translate(1319 2053)"><path class="b" d="M39.431,39.478V18.262L24.71,10.142,10,18.26V39.478h4.013V25.432a2.007,2.007,0,0,1,2.007-2.007H33.411a2.007,2.007,0,0,1,2.007,2.007V39.478ZM24.716,20.08a3.344,3.344,0,1,1,3.344-3.344A3.344,3.344,0,0,1,24.716,20.08Z" transform="translate(-1.987 -2.034)"/><circle class="b" cx="2" cy="2" r="2" transform="translate(20.729 12.729)"/><path class="b" d="M18.669,32a.669.669,0,0,0-.669.669V50.06a.669.669,0,0,0,.669.669H36.06a.669.669,0,0,0,.669-.669V32.669A.669.669,0,0,0,36.06,32H30.709v7.358a.669.669,0,0,1-.971.6l-2.351-1.187-2.4,1.192a.669.669,0,0,1-.966-.6V32Z" transform="translate(-4.635 -9.271)"/><path class="b" d="M31.334,37.423l1.68.848V32H29v6.28l1.739-.862A.665.665,0,0,1,31.334,37.423Z" transform="translate(-8.278 -9.271)"/><path class="b" d="M45,4V7.367l2.007,1.107V4Z" transform="translate(-13.575)"/><path class="b" d="M41.458,14.475,22.724,4.142,4,14.475v2.486L22.4,6.806a.669.669,0,0,1,.647,0L41.458,16.961Z" transform="translate(0 -0.047)"/></g></g></svg>