<svg xmlns="http://www.w3.org/2000/svg" width="10.861" height="10.86" viewBox="0 0 10.861 10.86"><path d="M15.037,13.006a9.123,9.123,0,0,0-1.906-1.275c-.571-.274-.78-.269-1.185.023-.336.243-.554.469-.942.385a5.617,5.617,0,0,1-1.892-1.4,5.576,5.576,0,0,1-1.4-1.892c-.082-.39.144-.605.385-.942.291-.4.3-.614.023-1.185A8.942,8.942,0,0,0,6.846,4.815c-.416-.416-.509-.325-.738-.243a4.2,4.2,0,0,0-.676.359,2.038,2.038,0,0,0-.811.857c-.161.348-.348,1,.6,2.686a14.988,14.988,0,0,0,2.635,3.514h0l0,0,0,0h0a15.046,15.046,0,0,0,3.514,2.635c1.691.95,2.338.763,2.686.6a2,2,0,0,0,.857-.811,4.2,4.2,0,0,0,.359-.676C15.363,13.515,15.456,13.422,15.037,13.006Z" transform="translate(-4.49 -4.502)"/></svg>